# xmcd
#
# Track frame offsets: 
#        150
#        14388
#        31370
#        47662
#        65482
#        78914
#        93629
#        107412
#        126267
#        142622
#        161690
#        175299
#
# Disc length: 2503 seconds
#
# Revision: 3
# Processed by: cddbd v1.5.1PL2 Copyright (c) Steve Scherf et al.
# Submitted via: ExactAudioCopy v0.95b3
#
DISCID=9409c50c
DTITLE=Graham Parker - Heat Treatment
DYEAR=1976
DGENRE=Rock
TTITLE0=Heat Treatment
TTITLE1=That's What They All Say
TTITLE2=Turned Up Too Late
TTITLE3=Black Honey
TTITLE4=Hotel Chambermaid
TTITLE5=Pourin' It All Out
TTITLE6=Back Door Love
TTITLE7=Something You're Going Through
TTITLE8=Help Me Shake It
TTITLE9=Fool's Gold
TTITLE10=Hold Back The Night
TTITLE11=(Let Me Get) Sweet On You
EXTD=25th Anniversary Reissue YEAR: 2001
EXTT0=
EXTT1=
EXTT2=
EXTT3=
EXTT4=
EXTT5=
EXTT6=
EXTT7=
EXTT8=
EXTT9=
EXTT10=
EXTT11=
PLAYORDER=
